<?xml version="1.0" encoding="UTF-8" standalone="no"?>
<svg width="400px" height="98px" viewBox="0 0 400 98" version="1.1" xmlns="http://www.w3.org/2000/svg" xmlns:xlink="http://www.w3.org/1999/xlink" xmlns:sketch="http://www.bohemiancoding.com/sketch/ns">
    <!-- Generator: Sketch 3.0.4 (8053) - http://www.bohemiancoding.com/sketch -->
    <title>bamboo-logo</title>
    <desc>Created with Sketch.</desc>
    <defs></defs>
    <g id="Page-1" stroke="none" stroke-width="1" fill="none" fill-rule="evenodd" sketch:type="MSPage">
        <path d="M117.406,76.158 L117.406,22.356 L126.052,22.356 L126.052,41.903 C129.181,37.704 133.792,35.398 138.815,35.398 C149.026,35.398 156.437,43.468 156.437,56.313 C156.437,69.406 148.944,77.146 138.815,77.146 C133.627,77.146 129.099,74.676 126.052,70.723 L126.052,76.158 L117.406,76.158 L117.406,76.158 Z M136.262,69.488 C143.179,69.488 147.543,64.053 147.543,56.313 C147.543,48.573 143.179,43.056 136.262,43.056 C132.228,43.056 127.946,45.526 126.052,48.491 L126.052,64.218 C127.946,67.183 132.228,69.488 136.262,69.488 L136.262,69.488 Z" id="Fill-1" fill="#304053" sketch:type="MSShapeGroup"></path>
        <path d="M187.891,76.158 L187.891,71.876 C184.927,75.252 180.315,77.146 175.046,77.146 C168.54,77.146 161.212,72.782 161.212,63.971 C161.212,54.831 168.54,51.043 175.046,51.043 C180.398,51.043 185.009,52.772 187.891,56.148 L187.891,50.22 C187.891,45.609 184.103,42.809 178.586,42.809 C174.14,42.809 170.269,44.456 166.811,47.832 L163.27,41.821 C167.881,37.456 173.645,35.398 179.986,35.398 C188.797,35.398 196.537,39.103 196.537,49.808 L196.537,76.158 L187.891,76.158 L187.891,76.158 Z M187.891,67.1 L187.891,61.089 C185.915,58.372 182.209,56.972 178.422,56.972 C173.563,56.972 169.94,59.772 169.94,64.136 C169.94,68.417 173.563,71.217 178.422,71.217 C182.209,71.217 185.915,69.818 187.891,67.1 L187.891,67.1 Z" id="Fill-2" fill="#304053" sketch:type="MSShapeGroup"></path>
        <path d="M252.366,76.158 L252.366,50.22 C252.366,45.938 250.472,43.056 245.861,43.056 C241.991,43.056 238.367,45.774 236.638,48.326 L236.638,76.158 L227.992,76.158 L227.992,50.22 C227.992,45.938 226.098,43.056 221.405,43.056 C217.617,43.056 214.076,45.774 212.265,48.409 L212.265,76.158 L203.619,76.158 L203.619,36.386 L212.265,36.386 L212.265,41.821 C213.911,39.35 219.182,35.398 225.193,35.398 C231.121,35.398 234.745,38.362 236.062,42.726 C238.367,39.103 243.637,35.398 249.566,35.398 C256.895,35.398 261.012,39.35 261.012,47.42 L261.012,76.158 L252.366,76.158" id="Fill-3" fill="#304053" sketch:type="MSShapeGroup"></path>
        <path d="M268.093,76.158 L268.093,22.356 L276.739,22.356 L276.739,41.903 C279.868,37.704 284.479,35.398 289.502,35.398 C299.713,35.398 307.124,43.468 307.124,56.313 C307.124,69.406 299.631,77.146 289.502,77.146 C284.315,77.146 279.786,74.676 276.739,70.723 L276.739,76.158 L268.093,76.158 L268.093,76.158 Z M286.949,69.488 C293.866,69.488 298.23,64.053 298.23,56.313 C298.23,48.573 293.866,43.056 286.949,43.056 C282.915,43.056 278.633,45.526 276.739,48.491 L276.739,64.218 C278.633,67.183 282.915,69.488 286.949,69.488 L286.949,69.488 Z" id="Fill-4" fill="#304053" sketch:type="MSShapeGroup"></path>
        <path d="M311.817,56.231 C311.817,44.867 319.639,35.398 332.238,35.398 C345.001,35.398 352.742,44.867 352.742,56.231 C352.742,67.676 345.001,77.146 332.238,77.146 C319.639,77.146 311.817,67.676 311.817,56.231 M343.766,56.231 C343.766,49.231 339.649,43.056 332.238,43.056 C324.909,43.056 320.793,49.231 320.793,56.231 C320.793,63.312 324.909,69.488 332.238,69.488 C339.649,69.488 343.766,63.312 343.766,56.231" id="Fill-5" fill="#304053" sketch:type="MSShapeGroup"></path>
        <path d="M357.353,56.231 C357.353,44.867 365.175,35.398 377.774,35.398 C390.537,35.398 398.278,44.867 398.278,56.231 C398.278,67.676 390.537,77.146 377.774,77.146 C365.175,77.146 357.353,67.676 357.353,56.231 M389.302,56.231 C389.302,49.231 385.185,43.056 377.774,43.056 C370.445,43.056 366.328,49.231 366.328,56.231 C366.328,63.312 370.445,69.488 377.774,69.488 C385.185,69.488 389.302,63.312 389.302,56.231" id="Fill-6" fill="#304053" sketch:type="MSShapeGroup"></path>
        <path d="M21.402,21.878 L17.362,12.039 L44.658,0.832 L48.697,10.672 L21.402,21.878" id="Fill-7" fill="#68BC8E" sketch:type="MSShapeGroup"></path>
        <path d="M76.093,21.956 L85.932,17.916 L97.139,45.212 L87.3,49.251 L76.093,21.956" id="Fill-8" fill="#68BC8E" sketch:type="MSShapeGroup"></path>
        <path d="M0.317,53.067 L10.156,49.028 L21.363,76.323 L11.524,80.362 L0.317,53.067" id="Fill-9" fill="#68BC8E" sketch:type="MSShapeGroup"></path>
        <path d="M48.69,10.652 L52.791,0.838 L80.016,12.215 L75.915,22.028 L48.69,10.652" id="Fill-10" fill="#68BC8E" sketch:type="MSShapeGroup"></path>
        <path d="M11.581,17.758 L21.395,21.859 L10.018,49.084 L0.204,44.983 L11.581,17.758" id="Fill-11" fill="#68BC8E" sketch:type="MSShapeGroup"></path>
        <path d="M75.911,76.502 L79.951,86.341 L52.655,97.548 L48.616,87.708 L75.911,76.502" id="Fill-12" fill="#68BC8E" sketch:type="MSShapeGroup"></path>
        <path d="M48.624,87.73 L44.523,97.544 L17.298,86.167 L21.399,76.353 L48.624,87.73" id="Fill-13" fill="#68BC8E" sketch:type="MSShapeGroup"></path>
        <path d="M85.717,80.585 L75.904,76.484 L87.28,49.259 L97.094,53.36 L85.717,80.585" id="Fill-14" fill="#68BC8E" sketch:type="MSShapeGroup"></path>
        <path d="M398.372,54.084 C398.309,54.791 398.278,55.507 398.278,56.231 C398.278,56.96 398.309,57.682 398.372,58.393 L398.372,54.084" id="Fill-15" fill="#304053" sketch:type="MSShapeGroup"></path>
    </g>
</svg>