<?xml version="1.0" encoding="UTF-8" standalone="no"?>
<svg width="38px" height="38px" viewBox="0 0 38 38" version="1.1" xmlns="http://www.w3.org/2000/svg" xmlns:xlink="http://www.w3.org/1999/xlink" xmlns:sketch="http://www.bohemiancoding.com/sketch/ns">
    <!-- Generator: Sketch 3.0.4 (8053) - http://www.bohemiancoding.com/sketch -->
    <title>cash</title>
    <desc>Created with Sketch.</desc>
    <defs></defs>
    <g id="Page-1" stroke="none" stroke-width="1" fill="none" fill-rule="evenodd" sketch:type="MSPage">
        <path d="M1,25 L1,22 L1,22 L1,11 L1,11 L1,8 L31,8 L31,11 L31,11 L31,22 L31,22 L31,25 L1,25" id="Fill-1" fill="#68BC8E" sketch:type="MSShapeGroup"></path>
        <path d="M36,27 L36,11 L33,11 L33,27 L27,27 L27,30 L36,30 L36,27 L36,27 M5,27 L5,30 L27,30 L27,27 L5,27" id="Fill-2" fill="#68BC8E" sketch:type="MSShapeGroup"></path>
        <path d="M12,17 L13,17 C12.7513724,16.0960307 12.3839204,15.4527529 12,15 C12.3839204,12.3920615 14.5505489,11 17,11 C18.5534081,11 19.9326395,11.6791293 21,13 L19,14 C18.4123971,13.521895 17.7310156,13.0179257 17,13 C15.8968435,13.0179257 15.0919488,13.6612036 15,15 C15.0919488,15.5224072 15.5468893,16.0612036 16,17 L18,17 L18,18 L16,18 C16.4907365,18.2 16.5082342,18.321895 17,18 C16.5082342,19.24379 16.0182983,19.9741357 15,20 C15.6518756,20.2701665 15.9833028,20.234315 16,20 C17.2596066,20.234315 17.6445563,20.8089629 19,21 C19.2687557,20.8089629 19.7936871,20.478105 20,20 L21,22 C20.5275618,22.6179257 19.7051693,23 18,23 C16.9106816,23 16.3332571,22.2358515 15,22 C14.6565645,22.2358515 13.9391583,22.5134443 13,23 L12,21 C13.485247,20.6870679 14.305581,19.921895 14,19 C14.305581,18.7049936 14.2191217,18.3915493 14,18 L12,18 L12,17" id="Fill-4" fill="#FFFFFF" sketch:type="MSShapeGroup"></path>
    </g>
</svg>