<?xml version="1.0" standalone="no"?>
<!DOCTYPE svg PUBLIC "-//W3C//DTD SVG 1.1//EN" "http://www.w3.org/Graphics/SVG/1.1/DTD/svg11.dtd">
<svg width="180px" height="100px" version="1.1" xmlns="http://www.w3.org/2000/svg" xmlns:xlink="http://www.w3.org/1999/xlink" xml:space="preserve" style="fill-rule:evenodd;clip-rule:evenodd;stroke-linejoin:round;stroke-miterlimit:1.41421;">
    <g>
        <g id="Layer1">
            <g>
                <g>
                    <path d="M69.651,31.1979C74.1175,32.62 79.2008,31.5739 82.7514,28.0376C86.3298,24.4719 87.3809,19.3402 85.9242,14.8399C83.2523,17.5022 82.5742,18.1771 81.6181,19.1297C79.3238,21.4143 75.6119,21.4081 73.3281,19.1132C71.0429,16.8204 71.0511,13.1083 73.3422,10.8235C74.3784,9.79225 75.0959,9.07815 77.6502,6.53408C73.1565,5.05915 68.0191,6.09058 64.4402,9.65454C60.8899,13.1913 59.8239,18.2702 61.228,22.7415L22.7793,61.2566C18.313,59.8341 13.2292,60.8804 9.67869,64.4163C6.10005,67.9819 5.04934,73.1143 6.50603,77.6145C9.17817,74.9522 9.856,74.2769 10.812,73.3252C13.1064,71.0395 16.8177,71.0462 19.1023,73.3411C21.3873,75.6341 21.379,79.3464 19.0874,81.6312C18.0516,82.662 17.3346,83.3757 14.7796,85.9208C19.2738,87.3951 24.411,86.3641 27.99,82.7999C31.5402,79.263 32.606,74.1843 31.2019,69.713L69.651,31.1979Z" style="fill:white;fill-rule:nonzero;stroke-width:2.18px;stroke:rgb(103,213,152);"/>
                </g>
                <g>
                    <path d="M43.8591,48.4066C42.5388,47.0863 40.3982,47.0863 39.078,48.4066L28.579,58.9056C27.2587,60.2259 27.2587,62.3664 28.579,63.6867C29.8992,65.007 32.0398,65.007 33.3601,63.6867L43.8591,53.1877C45.1793,51.8674 45.1793,49.7269 43.8591,48.4066Z" style="fill:rgb(121,132,149);"/>
                </g>
                <g>
                    <path d="M63.9875,28.2782C62.6672,26.9579 60.5267,26.9579 59.2064,28.2782L48.7074,38.7772C47.3871,40.0974 47.3871,42.238 48.7074,43.5583C50.0277,44.8785 52.1682,44.8785 53.4885,43.5583L63.9875,33.0592C65.3078,31.739 65.3078,29.5984 63.9875,28.2782Z" style="fill:rgb(121,132,149);"/>
                </g>
                <g>
                    <path d="M90.4872,86.7924C78.4572,86.7924 68.7047,77.0405 68.7052,65.0107C68.7047,52.9803 78.4572,43.2279 90.4872,43.2279C102.517,43.2279 112.269,52.9803 112.269,65.0107C112.269,77.0405 102.517,86.7924 90.4872,86.7924M90.4872,39.0521C76.1506,39.0521 64.5285,50.6735 64.5285,65.0107C64.5288,79.3465 76.1506,90.9683 90.4872,90.9683C104.824,90.9683 116.445,79.3465 116.445,65.0107C116.445,50.6735 104.824,39.0521 90.4872,39.0521" style="fill:rgb(103,213,152);fill-rule:nonzero;stroke-width:0.26px;stroke:rgb(121,132,149);"/>
                </g>
                <g>
                    <path d="M90.487,47.6033C100.101,47.6033 107.894,55.3967 107.894,65.0102C107.894,74.6238 100.101,82.4171 90.487,82.4171C80.8735,82.4171 73.0801,74.6238 73.0801,65.0102C73.0801,55.3967 80.8735,47.6033 90.487,47.6033ZM90.1985,79.3733C88.6518,79.3733 87.398,78.1194 87.398,76.5728C87.398,75.0261 88.6518,73.7723 90.1985,73.7723C91.7452,73.7723 92.999,75.0261 92.999,76.5728C92.999,78.1194 91.7452,79.3733 90.1985,79.3733ZM100.439,75.3704C99.3456,76.4641 97.5724,76.4641 96.4787,75.3704C95.385,74.2767 95.385,72.5036 96.4787,71.4099C97.5724,70.3162 99.3456,70.3162 100.439,71.4099C101.533,72.5036 101.533,74.2767 100.439,75.3704ZM80.1268,74.9624C79.0331,73.8688 79.0331,72.0956 80.1268,71.0019C81.2205,69.9083 82.9936,69.9083 84.0873,71.0019C85.181,72.0956 85.181,73.8688 84.0873,74.9624C82.9936,76.0561 81.2205,76.0561 80.1268,74.9624ZM90.487,58.8379C93.8959,58.8379 96.6593,61.6013 96.6593,65.0102C96.6593,68.4191 93.8959,71.1825 90.487,71.1825C87.0781,71.1825 84.3147,68.4191 84.3147,65.0102C84.3147,61.6013 87.0781,58.8379 90.487,58.8379ZM104.85,65.2987C104.85,66.8454 103.596,68.0992 102.05,68.0992C100.503,68.0992 99.249,66.8454 99.249,65.2987C99.249,63.752 100.503,62.4982 102.05,62.4982C103.596,62.4982 104.85,63.752 104.85,65.2987ZM76.1239,64.7217C76.1239,63.175 77.3778,61.9212 78.9244,61.9212C80.4711,61.9212 81.725,63.175 81.725,64.7217C81.725,66.2684 80.4711,67.5222 78.9244,67.5222C77.3778,67.5222 76.1239,66.2684 76.1239,64.7217ZM100.847,55.058C101.941,56.1516 101.941,57.9248 100.847,59.0185C99.7535,60.1122 97.9804,60.1122 96.8867,59.0185C95.793,57.9248 95.793,56.1516 96.8867,55.058C97.9804,53.9643 99.7535,53.9643 100.847,55.058ZM80.5348,54.65C81.6284,53.5563 83.4016,53.5563 84.4953,54.65C85.589,55.7437 85.589,57.5169 84.4953,58.6105C83.4016,59.7042 81.6284,59.7042 80.5348,58.6105C79.4411,57.5169 79.4411,55.7437 80.5348,54.65ZM90.7755,50.6471C92.3222,50.6471 93.576,51.901 93.576,53.4477C93.576,54.9943 92.3222,56.2482 90.7755,56.2482C89.2288,56.2482 87.975,54.9943 87.975,53.4477C87.975,51.901 89.2288,50.6471 90.7755,50.6471Z" style="fill:rgb(121,132,149);stroke-width:0.83px;stroke:rgb(103,213,152);"/>
                </g>
                <g>
                    <path d="M159.793,86.2216C153.15,86.2216 147.764,80.8364 147.764,74.1931C147.764,67.5495 153.15,62.164 159.793,62.164C166.436,62.164 171.822,67.5495 171.822,74.1931C171.822,80.8364 166.436,86.2216 159.793,86.2216M159.793,59.8578C151.876,59.8574 145.458,66.276 145.458,74.1931C145.458,82.1099 151.876,88.5284 159.793,88.5284C167.71,88.5284 174.128,82.1099 174.128,74.1931C174.128,66.276 167.71,59.8578 159.793,59.8578" style="fill:rgb(121,132,149);fill-rule:nonzero;stroke-width:0.42px;stroke:rgb(103,213,152);"/>
                </g>
                <g>
                    <path d="M159.793,77.0882C158.194,77.0882 156.897,75.7917 156.897,74.1931C156.897,72.5943 158.194,71.2977 159.793,71.2977C161.392,71.2977 162.688,72.5943 162.688,74.1931C162.688,75.7917 161.392,77.0882 159.793,77.0882M159.793,66.2056C155.381,66.2056 151.806,69.7819 151.806,74.1931C151.806,78.604 155.381,82.1799 159.793,82.1799C164.204,82.1799 167.78,78.604 167.78,74.1931C167.78,69.7819 164.204,66.2056 159.793,66.2056" style="fill:rgb(103,213,152);fill-rule:nonzero;"/>
                </g>
                <g>
                    <path d="M132.066,91.434C128.045,91.434 124.787,88.175 124.787,84.1543C124.786,80.1343 128.046,76.8761 132.066,76.8761C136.086,76.8761 139.345,80.1343 139.345,84.1543C139.345,88.175 136.086,91.434 132.066,91.434M132.066,74.1931C126.564,74.1931 122.105,78.6535 122.105,84.1543C122.105,89.6562 126.564,94.1162 132.066,94.1162C137.567,94.1162 142.027,89.6562 142.027,84.1543C142.027,78.6535 137.567,74.1931 132.066,74.1931" style="fill:rgb(103,213,152);fill-rule:nonzero;"/>
                </g>
                <g>
                    <path d="M132.066,86.1667C130.955,86.1667 130.053,85.2656 130.054,84.1542C130.054,83.0437 130.955,82.1427 132.066,82.1427C133.177,82.1427 134.078,83.0437 134.078,84.1542C134.078,85.2656 133.177,86.1667 132.066,86.1667M132.066,79.5669C129.532,79.5669 127.478,81.621 127.478,84.1542C127.478,86.6882 129.532,88.7424 132.066,88.7424C134.599,88.7424 136.653,86.6882 136.654,84.1542C136.654,81.621 134.599,79.5669 132.066,79.5669" style="fill:rgb(220,221,222);fill-rule:nonzero;stroke-width:0.42px;stroke:rgb(121,132,149);"/>
                </g>
            </g>
        </g>
    </g>
</svg>
