<?xml version="1.0" encoding="UTF-8" standalone="no"?>
<svg width="38px" height="38px" viewBox="0 0 38 38" version="1.1" xmlns="http://www.w3.org/2000/svg" xmlns:xlink="http://www.w3.org/1999/xlink" xmlns:sketch="http://www.bohemiancoding.com/sketch/ns">
    <!-- Generator: Sketch 3.0.4 (8053) - http://www.bohemiancoding.com/sketch -->
    <title>lowinterest</title>
    <desc>Created with Sketch.</desc>
    <defs></defs>
    <g id="Page-1" stroke="none" stroke-width="1" fill="none" fill-rule="evenodd" sketch:type="MSPage">
        <path d="M9,15 L5,15 L5,32 L9,32 L9,15 Z M15,21 L11,21 L11,32 L15,32 L15,21 Z M27,27 L23,27 L23,32 L27,32 L27,27 Z M33,30 L29,30 L29,32 L33,32 L33,30 Z M21,24 L17,24 L17,32 L21,32 L21,24 Z" id="Fill-1" fill="#4DBFDB" sketch:type="MSShapeGroup"></path>
        <path d="M24.1688755,12.5861243 L29.4809252,17.9154466 L29.485,13.85 L33.082,13.853 L33.0756043,20.2339936 L33.082,20.234 L33.078,23.83 L33.072,23.829994 L29.475,23.827 L29.4750006,23.8263887 L23.101,23.82 L23.104,20.224 L26.7075407,20.2276115 L26.7075407,20.2276115 L21.6233108,15.1273221 L19.1367158,17.6096514 L19.162,17.635 L16.616,20.175 L16.5915306,20.1504704 L14.051,17.605 L5.234,8.765 L7.78,6.224 L16.5969515,15.0634161 L21.629,10.04 L21.6309971,10.0420018 L21.632,10.041 L23.8887393,12.3050772 L24.169,12.586 Z" id="Fill-6" fill="#4DBFDB" sketch:type="MSShapeGroup"></path>
    </g>
</svg>