<?xml version="1.0" encoding="UTF-8" standalone="no"?>
<svg width="38px" height="38px" viewBox="0 0 38 38" version="1.1" xmlns="http://www.w3.org/2000/svg" xmlns:xlink="http://www.w3.org/1999/xlink" xmlns:sketch="http://www.bohemiancoding.com/sketch/ns">
    <!-- Generator: Sketch 3.0.4 (8053) - http://www.bohemiancoding.com/sketch -->
    <title>settings</title>
    <desc>Created with Sketch.</desc>
    <defs></defs>
    <g id="Page-1" stroke="none" stroke-width="1" fill="none" fill-rule="evenodd" sketch:type="MSPage">
        <path d="M21.193,10.212 L16.648,10.217 L16.643,4.696 L21.187,4.691 L21.193,10.212" id="Fill-1" fill="#314153" sketch:type="MSShapeGroup"></path>
        <path d="M21.193,33.305 L16.648,33.309 L16.643,27.788 L21.187,27.783 L21.193,33.305" id="Fill-2" fill="#314153" sketch:type="MSShapeGroup"></path>
        <path d="M18.914,30.355 C12.654,30.355 7.56,25.262 7.56,19.001 C7.56,12.741 12.654,7.648 18.914,7.648 C25.174,7.648 30.267,12.741 30.267,19.001 C30.267,25.262 25.174,30.355 18.914,30.355 M18.914,11.172 C14.597,11.172 11.085,14.684 11.085,19.001 C11.085,23.318 14.597,26.83 18.914,26.83 C23.231,26.83 26.743,23.318 26.743,19.001 C26.743,14.684 23.231,11.172 18.914,11.172" id="Fill-3" fill="#314153" sketch:type="MSShapeGroup"></path>
        <path d="M27.706,21.275 L27.701,16.731 L33.222,16.725 L33.227,21.27 L27.706,21.275" id="Fill-4" fill="#314153" sketch:type="MSShapeGroup"></path>
        <path d="M4.613,21.275 L4.609,16.731 L10.13,16.725 L10.135,21.27 L4.613,21.275" id="Fill-5" fill="#314153" sketch:type="MSShapeGroup"></path>
        <path d="M23.523,26.823 L26.733,23.606 L30.641,27.506 L27.431,30.723 L23.523,26.823" id="Fill-6" fill="#314153" sketch:type="MSShapeGroup"></path>
        <path d="M7.194,10.494 L10.404,7.277 L14.312,11.177 L11.102,14.394 L7.194,10.494" id="Fill-7" fill="#314153" sketch:type="MSShapeGroup"></path>
        <path d="M11.095,23.605 L14.312,26.815 L10.412,30.723 L7.195,27.513 L11.095,23.605" id="Fill-8" fill="#314153" sketch:type="MSShapeGroup"></path>
        <path d="M27.424,7.277 L30.641,10.487 L26.741,14.395 L23.524,11.185 L27.424,7.277" id="Fill-9" fill="#314153" sketch:type="MSShapeGroup"></path>
    </g>
</svg>