<?xml version="1.0" encoding="UTF-8" standalone="no"?>
<svg width="38px" height="38px" viewBox="0 0 38 38" version="1.1" xmlns="http://www.w3.org/2000/svg" xmlns:xlink="http://www.w3.org/1999/xlink" xmlns:sketch="http://www.bohemiancoding.com/sketch/ns">
    <!-- Generator: Sketch 3.0.4 (8053) - http://www.bohemiancoding.com/sketch -->
    <title>percent</title>
    <desc>Created with Sketch.</desc>
    <defs></defs>
    <g id="Page-1" stroke="none" stroke-width="1" fill="none" fill-rule="evenodd" sketch:type="MSPage">
        <path d="M21.959,13.508 L24.482,16.036 L31.496,9.036 L28.973,6.508 L21.959,13.508 Z M14.231,21.235 L16.754,23.764 L23.768,16.764 L21.245,14.236 L14.231,21.235 Z M6.504,28.963 L9.026,31.492 L16.041,24.492 L13.517,21.964 L6.504,28.963 Z M27.324,33.077 C24.149,33.077 21.567,30.494 21.567,27.32 C21.567,24.145 24.149,21.562 27.324,21.562 C30.499,21.562 33.082,24.145 33.082,27.32 C33.082,30.494 30.499,33.077 27.324,33.077 Z M27.324,24.732 C25.897,24.732 24.737,25.893 24.737,27.32 C24.737,28.746 25.897,29.907 27.324,29.907 C28.751,29.907 29.911,28.746 29.911,27.32 C29.911,25.893 28.751,24.732 27.324,24.732 M10.676,16.438 C7.501,16.438 4.918,13.855 4.918,10.68 C4.918,7.506 7.501,4.923 10.676,4.923 C13.851,4.923 16.433,7.506 16.433,10.68 C16.433,13.855 13.851,16.438 10.676,16.438 M10.676,8.093 C9.249,8.093 8.089,9.254 8.089,10.68 C8.089,12.107 9.249,13.267 10.676,13.267 C12.103,13.267 13.263,12.107 13.263,10.68 C13.263,9.254 12.103,8.093 10.676,8.093" id="Fill-1" fill="#795291" sketch:type="MSShapeGroup"></path>
    </g>
</svg>