<?xml version="1.0" encoding="UTF-8" standalone="no"?>
<svg width="38px" height="38px" viewBox="0 0 38 38" version="1.1" xmlns="http://www.w3.org/2000/svg" xmlns:xlink="http://www.w3.org/1999/xlink" xmlns:sketch="http://www.bohemiancoding.com/sketch/ns">
    <!-- Generator: Sketch 3.0.4 (8053) - http://www.bohemiancoding.com/sketch -->
    <title>savings</title>
    <desc>Created with Sketch.</desc>
    <defs></defs>
    <g id="Page-1" stroke="none" stroke-width="1" fill="none" fill-rule="evenodd" sketch:type="MSPage">
        <path d="M31,28 L31,32 L19,32 L19,28 L31,28 Z M31,22 L31,26 L19,26 L19,22 L31,22 Z M31,16 L31,20 L19,20 L19,16 L31,16 Z M35,10 L35,14 L23,14 L23,10 L35,10 Z M29,4 L29,8 L17,8 L17,4 L29,4 Z M15,28 L15,32 L3,32 L3,28 L15,28 Z M16,22 L16,26 L4,26 L4,22 L16,22 Z M14,16 L14,20 L2,20 L2,16 L14,16 Z" id="Fill-1" fill="#EDC947" sketch:type="MSShapeGroup"></path>
    </g>
</svg>