<?xml version="1.0" encoding="UTF-8" standalone="no"?>
<svg width="38px" height="38px" viewBox="0 0 38 38" version="1.1" xmlns="http://www.w3.org/2000/svg" xmlns:xlink="http://www.w3.org/1999/xlink" xmlns:sketch="http://www.bohemiancoding.com/sketch/ns">
    <!-- Generator: Sketch 3.0.4 (8053) - http://www.bohemiancoding.com/sketch -->
    <title>transfer</title>
    <desc>Created with Sketch.</desc>
    <defs></defs>
    <g id="Page-1" stroke="none" stroke-width="1" fill="none" fill-rule="evenodd" sketch:type="MSPage">
        <path d="M33,12 L27,6 L25,8 L29.5,12.5 L25,17 L27,19 L33,13 L33,12 Z" id="Fill-1" fill="#E05654" sketch:type="MSShapeGroup"></path>
        <path d="M23,14 L23,11 L31,11 L31,14 L23,14" id="Fill-3" fill="#E05654" sketch:type="MSShapeGroup"></path>
        <path d="M14,14 L14,11 L23,11 L23,14 L14,14" id="Fill-4" fill="#E05654" sketch:type="MSShapeGroup"></path>
        <path d="M5,14 L5,11 L14,11 L14,14 L5,14" id="Fill-5" fill="#E05654" sketch:type="MSShapeGroup"></path>
        <path d="M5,26 L11,32 L13,30 L8.5,25.5 L13,21 L11,19 L5,25 L5,26 Z" id="Fill-6" fill="#E05654" sketch:type="MSShapeGroup"></path>
        <path d="M16,24 L16,27 L7,27 L7,24 L16,24" id="Fill-8" fill="#E05654" sketch:type="MSShapeGroup"></path>
        <path d="M24,24 L24,27 L15,27 L15,24 L24,24" id="Fill-9" fill="#E05654" sketch:type="MSShapeGroup"></path>
        <path d="M33,24 L33,27 L24,27 L24,24 L33,24" id="Fill-10" fill="#E05654" sketch:type="MSShapeGroup"></path>
    </g>
</svg>